<?xml version="1.0" encoding="UTF-8" standalone="no"?>
<!-- Created with Inkscape (http://www.inkscape.org/) -->

<svg
   width="1920mm"
   height="1080mm"
   viewBox="0 0 1920 1080"
   version="1.1"
   id="svg1819"
   inkscape:version="1.1 (c68e22c387, 2021-05-23)"
   sodipodi:docname="background-wave.svg"
   xmlns:inkscape="http://www.inkscape.org/namespaces/inkscape"
   xmlns:sodipodi="http://sodipodi.sourceforge.net/DTD/sodipodi-0.dtd"
   xmlns="http://www.w3.org/2000/svg"
   xmlns:svg="http://www.w3.org/2000/svg">
  <sodipodi:namedview
     id="namedview1821"
     pagecolor="#ffffff"
     bordercolor="#666666"
     borderopacity="1.0"
     inkscape:pageshadow="2"
     inkscape:pageopacity="0.0"
     inkscape:pagecheckerboard="0"
     inkscape:document-units="mm"
     showgrid="false"
     inkscape:zoom="0.092648709"
     inkscape:cx="2741.5385"
     inkscape:cy="3826.281"
     inkscape:window-width="1920"
     inkscape:window-height="1017"
     inkscape:window-x="-8"
     inkscape:window-y="-8"
     inkscape:window-maximized="1"
     inkscape:current-layer="layer1" />
  <defs
     id="defs1816">
    <inkscape:path-effect
       effect="bspline"
       id="path-effect2546"
       is_visible="true"
       lpeversion="1"
       weight="33.333333"
       steps="2"
       helper_size="0"
       apply_no_weight="true"
       apply_with_weight="true"
       only_selected="false" />
    <inkscape:path-effect
       effect="bspline"
       id="path-effect1934"
       is_visible="true"
       lpeversion="1"
       weight="33.333333"
       steps="2"
       helper_size="0"
       apply_no_weight="true"
       apply_with_weight="true"
       only_selected="false" />
  </defs>
  <g
     inkscape:label="Camada 1"
     inkscape:groupmode="layer"
     id="layer1">
    <path
       style="fill:none;stroke:none;stroke-width:0.264583px;stroke-linecap:butt;stroke-linejoin:miter;stroke-opacity:1"
       d="m -156.11513,1075.6732 c -89.48073,-112.32703 -80.91342,-111.3751 0.95347,-126.13025 81.866896,-14.75515 237.02725,-45.21608 367.91773,-73.29807 130.89048,-28.08199 237.50373,-53.7834 324.12941,-70.44212 86.62569,-16.65872 153.25897,-24.27395 228.46176,-19.99009 75.20279,4.28385 158.97035,20.46622 245.12026,41.40879 86.15,20.94258 174.6771,46.644 251.3075,56.63908 76.6304,9.99508 141.3598,4.28367 207.0431,-10.94737 65.6834,-15.23103 132.3167,-39.98055 211.3272,-56.16329 79.0106,-16.18275 170.3934,-23.79798 243.6921,-21.41801 73.2986,2.37997 128.509,14.75471 167.538,99.47755 39.0289,84.72283 61.8746,241.78698 -237.9873,377.91298 -299.8619,136.126 -922.40713,251.3064 -1327.45226,196.0927 -405.04512,-55.2136 -592.570236,-280.8149 -682.05097,-393.1419 z"
       id="path2544"
       inkscape:path-effect="#path-effect2546"
       inkscape:original-d="m -254.16346,962.39421 c 8.56757,0.95219 17.13488,1.90413 25.70192,2.85578 155.166833,-30.4619 310.327189,-60.92282 465.49038,-91.38462 106.61778,-25.70218 213.23103,-51.40359 319.84615,-77.10577 66.63621,-7.61526 133.26949,-15.2305 199.90385,-22.84614 83.77115,16.18327 167.53871,32.36564 251.30766,48.54805 88.5309,25.70271 177.058,51.40413 265.5866,77.10578 64.7323,-5.71138 129.4617,-11.4228 194.1923,-17.1346 66.6362,-24.75024 133.2695,-49.49973 199.9038,-74.25 91.3867,-7.61529 182.7695,-15.23052 274.1539,-22.84616 55.2129,12.37552 110.4233,24.75026 165.6346,37.12498 22.8468,157.07072 45.6925,314.13489 68.5384,471.20189 -622.5698,115.1853 -1245.11507,230.3657 -1867.67303,345.5481 -187.53233,-225.61 -375.057419,-451.2113 -562.58653,-676.81729 z" />
    <path
       style="opacity:1;fill:#f9c9b4;stroke-width:31.1586"
       d="M 626.08151,1454.5318 C 384.14083,1446.4816 202.32875,1410.3479 27.751279,1335.6187 -129.57684,1268.2732 -253.49368,1177.9128 -390.66613,1030.5082 c -40.69795,-43.73383 -59.8014,-69.67077 -58.47888,-79.39741 0.57891,-4.25768 4.94705,-8.9435 11.15057,-11.96152 5.96318,-2.90111 66.67389,-14.00326 146.18297,-26.7325 164.70048,-26.36814 326.476995,-54.58275 530.33818,-92.49354 236.05201,-43.89713 289.9194,-52.03918 381.38033,-57.64551 61.58323,-3.77492 132.68658,-0.40074 211.85051,10.05324 71.34515,9.42149 117.71396,17.86218 251.57055,45.79427 125.0837,26.10143 165.0003,33.44634 215.953,39.73668 115.7457,14.28941 198.6453,7.04728 357.0257,-31.1898 178.988,-43.21233 260.4965,-54.06831 406.1072,-54.08882 96.9134,-0.0138 116.6725,2.43814 153.8701,19.09276 75.5949,33.84616 123.7135,134.58761 102.4159,214.41885 -38.166,143.0614 -260.883,255.2806 -689.7355,347.5332 -326.6422,70.2657 -723.53581,110.1986 -1002.88299,100.9037 z"
       id="path2585" />
  </g>
</svg>
