<svg width="269" height="306" viewBox="0 0 269 306" fill="none" xmlns="http://www.w3.org/2000/svg">
<g clip-path="url(#clip0)">
<path opacity="0.529052" d="M218.584 123.039C198.747 106.709 169.427 109.551 153.097 129.388C136.766 149.225 139.609 178.544 159.445 194.875C179.282 211.205 208.602 208.363 224.932 188.526C241.263 168.689 238.42 139.37 218.584 123.039Z" fill="#E7652C" stroke="#E7652C" stroke-width="10.2763"/>
<path d="M186.314 124.986C166.477 108.655 137.158 111.497 120.827 131.334C104.497 151.171 107.339 180.49 127.176 196.821C147.012 213.152 176.332 210.309 192.662 190.472C208.993 170.636 206.151 141.316 186.314 124.986Z" fill="#E7652C" stroke="#E7652C" stroke-width="10.2763"/>
<path d="M146.931 66.846C132.053 54.5981 110.064 56.7299 97.8158 71.6075C85.5679 86.4851 87.6996 108.475 102.577 120.723C117.455 132.971 139.444 130.839 151.692 115.961C163.94 101.084 161.808 79.094 146.931 66.846Z" fill="#F9C9B4"/>
<path opacity="0.623853" d="M163.958 89.617C146.143 74.9509 119.812 77.5036 105.146 95.3184C90.4798 113.133 93.0324 139.464 110.847 154.13C128.662 168.796 154.993 166.244 169.659 148.429C184.325 130.614 181.773 104.283 163.958 89.617Z" fill="#F9C9B4"/>
</g>
<path d="M211.898 26.8526C212.665 26.8526 213.403 26.5575 213.963 25.9968L226.327 13.8395C227.478 12.7181 227.508 10.8296 226.357 9.67879C225.235 8.52797 223.347 8.49847 222.196 9.64929L209.832 21.8067C208.681 22.928 208.652 24.8165 209.803 25.9673C210.363 26.5575 211.13 26.8526 211.898 26.8526Z" fill="black"/>
<path d="M160.17 26.0262C160.731 26.5868 161.468 26.8524 162.206 26.8524C162.973 26.8524 163.74 26.5573 164.331 25.9671C165.481 24.8163 165.452 22.9278 164.272 21.8065L151.672 9.64911C150.521 8.49829 148.662 8.55731 147.511 9.70813C146.36 10.859 146.39 12.7475 147.57 13.8688L160.17 26.0262Z" fill="black"/>
<path d="M186.934 23.6951C188.557 23.6951 189.885 22.3672 189.885 20.7443V2.95082C189.885 1.32787 188.557 0 186.934 0C185.311 0 183.983 1.32787 183.983 2.95082V20.7443C183.983 22.3672 185.311 23.6951 186.934 23.6951Z" fill="black"/>
<path d="M225.944 58.6919C223.583 50.3116 218.596 43.1411 211.485 37.9182C204.403 32.7247 195.904 29.9805 186.934 29.9805C178.052 29.9805 169.613 32.7247 162.56 37.9477C155.478 43.1706 150.491 50.3706 148.131 58.7214C145.799 66.8657 146.39 75.7182 149.813 83.6559C152.97 91.0034 158.429 97.2887 165.304 101.538V110.892L165.275 123.049C165.275 123.079 165.275 123.108 165.275 123.108C165.54 134.646 175.249 144 186.934 144C198.855 144 208.563 134.587 208.563 123.02V101.508C215.527 97.2591 221.045 90.9444 224.232 83.5968C227.655 75.7182 228.275 66.8657 225.944 58.6919ZM186.934 138.098C179.498 138.098 173.154 132.876 171.56 125.971H202.337C200.921 132.876 194.547 138.098 186.934 138.098ZM202.691 120.069H202.662H171.206L171.235 113.813H202.691V120.069ZM204.167 97.2296C203.222 97.7608 202.632 98.7346 202.632 99.8263V107.912H171.206V99.8263C171.206 98.7641 170.616 97.7608 169.701 97.2592C156.304 89.7346 149.754 74.5673 153.826 60.3149C157.868 45.9444 171.472 35.8821 186.934 35.8821C202.75 35.8821 216.147 45.7083 220.278 60.3149C224.35 74.5673 217.711 89.7641 204.167 97.2296Z" fill="black"/>
<defs>
<clipPath id="clip0">
<rect width="191" height="191" fill="white" transform="translate(147.459 305.854) rotate(-140.537)"/>
</clipPath>
</defs>
</svg>
