<svg width="829" height="860" viewBox="0 0 829 860" fill="none" xmlns="http://www.w3.org/2000/svg">
<g opacity="0.4">
<path opacity="0.538226" d="M244.754 170.66C244.429 198.272 266.55 220.92 294.162 221.245C321.774 221.57 344.422 199.449 344.747 171.836C345.072 144.224 322.951 121.577 295.338 121.252C267.726 120.927 245.079 143.048 244.754 170.66Z" fill="#EB9C78"/>
<path opacity="0.69419" d="M183.247 232.78C182.76 274.198 215.941 308.17 257.36 308.657C298.778 309.144 332.75 275.963 333.237 234.544C333.724 193.126 300.543 159.154 259.124 158.667C217.706 158.18 183.734 191.361 183.247 232.78Z" fill="#EB6A2F"/>
<path d="M334.997 329.156C334.688 355.387 355.703 376.903 381.935 377.211C408.166 377.52 429.682 356.505 429.99 330.273C430.299 304.041 409.284 282.526 383.052 282.218C356.82 281.909 335.305 302.924 334.997 329.156Z" fill="#FC8953"/>
<path d="M501.829 474.964L503.097 367.167L298.924 364.765L297.656 472.563L501.829 474.964Z" fill="#EB9C78"/>
<path d="M494.245 452.027L497.579 168.612L415.481 167.646L412.147 451.062L494.245 452.027Z" fill="#EB672A"/>
<path opacity="0.504587" d="M396.181 321.285L399.515 37.8691L317.417 36.9034L314.084 320.319L396.181 321.285Z" fill="#FACAB4"/>
<path d="M345.911 376.384L347.179 268.586L143.005 266.185L141.737 373.982L345.911 376.384Z" fill="#FC8953"/>
<path opacity="0.538226" d="M168.514 676.591C196.129 676.591 218.514 654.206 218.514 626.591C218.514 598.977 196.129 576.591 168.514 576.591C140.9 576.591 118.514 598.977 118.514 626.591C118.514 654.206 140.9 676.591 168.514 676.591Z" fill="#EB9C78"/>
<path opacity="0.69419" d="M231.353 737.363C272.775 737.363 306.353 703.784 306.353 662.363C306.353 620.941 272.775 587.363 231.353 587.363C189.932 587.363 156.353 620.941 156.353 662.363C156.353 703.784 189.932 737.363 231.353 737.363Z" fill="#EB6A2F"/>
<path d="M325.937 584.49C352.171 584.49 373.437 563.224 373.437 536.99C373.437 510.757 352.171 489.49 325.937 489.49C299.704 489.49 278.437 510.757 278.437 536.99C278.437 563.224 299.704 584.49 325.937 584.49Z" fill="#FC8953"/>
<path d="M469.774 415.954H361.969V620.142H469.774V415.954Z" fill="#EB9C78"/>
<path d="M446.928 423.808H163.493V505.911H446.928V423.808Z" fill="#EB672A"/>
<path opacity="0.504587" d="M317.347 523.402H33.9122V605.506H317.347V523.402Z" fill="#FACAB4"/>
<path d="M373.035 573.021H265.23V777.209H373.035V573.021Z" fill="#FC8953"/>
</g>
<path d="M588.125 236.746C605.929 234.127 619.597 218.794 619.597 200.264V180.424C619.597 160.054 603.085 143.542 582.714 143.542H562.875C542.505 143.542 525.993 160.054 525.993 180.424V200.265C525.993 218.793 539.66 234.127 557.462 236.747C561.852 236.747 566.919 236.746 572.799 236.746C578.673 236.745 583.737 236.745 588.125 236.746Z" fill="#E7652C"/>
<path d="M489.796 581.965C489.889 587.593 491.227 593.285 493.972 598.629C500.691 611.712 513.965 619.23 527.726 619.23C533.558 619.23 539.476 617.881 545.019 615.032L728.818 519.974C741.609 513.404 749.075 500.569 749.404 487.143C749.284 481.576 747.933 475.949 745.218 470.663C738.499 457.58 725.227 450.063 711.468 450.063C705.636 450.063 699.717 451.413 694.174 454.262L510.374 549.32C497.645 555.86 490.189 568.608 489.796 581.965Z" fill="#E7652C"/>
<path d="M434.578 448.338C421.093 448.61 408.185 456.089 401.591 468.928C392.023 487.55 399.364 510.405 417.991 519.974L472.749 548.341C478.866 538.62 487.486 530.67 497.965 525.276L542.809 502.083L438.869 448.329H434.578V448.338Z" fill="#E7652C"/>
<path d="M771.096 513.867C765.149 527.629 754.719 538.815 741.213 545.762L557.451 640.801C557.429 640.812 557.409 640.824 557.387 640.833C548.232 645.537 537.977 648.022 527.727 648.022C503.24 648.022 481.084 634.497 469.906 612.73C464.861 602.913 462.453 592.221 462.725 581.486C462.717 578.932 462.854 576.379 463.148 573.838L405.577 544.016C392.095 537.075 381.679 525.911 375.732 512.175L318.943 627.833C316.068 633.687 316.397 640.218 319.845 645.751C323.292 651.286 329.01 654.458 335.531 654.458H810.47C816.99 654.458 822.708 651.284 826.156 645.751C829.605 640.218 829.933 633.687 827.058 627.834L771.096 513.867Z" fill="#FF8546"/>
<path d="M573 236.745C578.786 236.745 583.79 236.745 588.126 236.746C605.93 234.127 619.598 218.794 619.598 200.264V180.424C619.598 160.054 603.086 143.542 582.715 143.542H573V236.745Z" fill="#F0A479"/>
<path d="M711.469 450.065C705.637 450.065 699.718 451.415 694.175 454.264L573.002 516.933V600.561L728.821 519.974C741.612 513.404 749.078 500.569 749.407 487.143C749.287 481.576 747.936 475.949 745.221 470.663C738.5 457.581 725.228 450.065 711.469 450.065Z" fill="#F0A479"/>
<path d="M827.057 627.834L771.096 513.868C765.149 527.63 754.719 538.816 741.213 545.763L573 632.759V654.459H810.469C816.989 654.459 822.708 651.285 826.155 645.752C829.603 640.218 829.932 633.687 827.057 627.834Z" fill="#E03905"/>
<path d="M376.228 410.057L465.242 382.417C469.105 381.214 472.498 379.225 475.339 376.702C475.895 376.283 494.978 359.574 494.978 359.574V448.608L572.795 486.833L650.614 448.608V359.206C650.614 359.206 670.104 376.274 670.662 376.694C673.503 379.216 676.895 381.206 680.759 382.409L769.772 410.049C784.335 414.583 799.808 406.454 804.341 391.894C808.873 377.335 800.748 361.86 786.185 357.327L702.568 331.362L635.514 272.399C629.786 267.354 622.554 265.115 615.495 265.568C614.816 265.531 530.783 265.531 530.107 265.568C523.176 265.223 516.11 267.458 510.491 272.407L443.436 331.37L359.817 357.335C345.255 361.869 337.128 377.343 341.662 391.902C346.192 406.463 361.667 414.59 376.228 410.057Z" fill="#F0A479"/>
<path d="M376.228 410.057L465.242 382.417C469.105 381.214 472.498 379.225 475.339 376.702C475.895 376.283 494.978 359.574 494.978 359.574V448.608L572.795 486.833V265.539C551.618 265.539 530.443 265.548 530.105 265.567C523.174 265.222 516.108 267.457 510.489 272.406L443.434 331.369L359.815 357.334C345.253 361.868 337.126 377.342 341.66 391.901C346.192 406.463 361.667 414.59 376.228 410.057Z" fill="#E7652C"/>
</svg>
