<svg width="234" height="282" viewBox="0 0 234 282" fill="none" xmlns="http://www.w3.org/2000/svg">
<g clip-path="url(#clip0)">
<path opacity="0.529052" d="M126.633 68.0929C101.785 74.6299 86.9402 100.073 93.4773 124.922C100.014 149.77 125.457 164.615 150.306 158.078C175.155 151.541 189.999 126.097 183.462 101.249C176.925 76.4003 151.482 61.5558 126.633 68.0929Z" fill="#E7652C" stroke="#E7652C" stroke-width="10.2763"/>
<path d="M109.336 95.4049C84.4878 101.942 69.6433 127.385 76.1804 152.234C82.7174 177.082 108.161 191.927 133.009 185.39C157.858 178.853 172.702 153.409 166.165 128.561C159.628 103.712 134.185 88.8678 109.336 95.4049Z" fill="#E7652C" stroke="#E7652C" stroke-width="10.2763"/>
<path d="M39.1439 93.3399C20.5074 98.2427 9.37412 117.325 14.2769 135.961C19.1797 154.598 38.262 165.731 56.8985 160.828C75.5349 155.926 86.6683 136.843 81.7655 118.207C76.8627 99.5705 57.7803 88.4371 39.1439 93.3399Z" fill="#F9C9B4"/>
<path opacity="0.623853" d="M67.5724 92.8489C45.2566 98.7196 31.9252 121.569 37.7959 143.885C43.6667 166.201 66.5165 179.532 88.8323 173.662C111.148 167.791 124.48 144.941 118.609 122.625C112.738 100.31 89.8883 86.9781 67.5724 92.8489Z" fill="#F9C9B4"/>
</g>
<g clip-path="url(#clip1)">
<path d="M164.647 84.4838C164.388 83.9714 158.191 71.8064 147.763 60.122C141.557 53.168 135.133 47.8394 128.668 44.2837C120.34 39.7031 111.932 38.0525 103.675 39.3787C97.3165 40.3996 91.7368 43.836 87.9625 49.0542C85.3462 52.6717 83.8171 56.8457 83.4644 61.1843C78.5703 62.5369 74.2718 64.4587 70.8242 66.8623C68.5846 68.4239 66.7781 70.1587 65.4374 71.999C63.0337 69.6825 59.6164 67.7439 55.5378 66.4604C54.6066 59.2168 49.015 53.1253 41.4464 51.9095C17.7828 48.1086 1.05369 80.6487 0.352936 82.0354C-0.224891 83.1789 -0.0852002 84.5544 0.710545 85.5589C1.34261 86.3563 2.29678 86.8043 3.28678 86.8043C3.54348 86.8043 3.80248 86.7741 4.05918 86.7123C4.22221 86.6731 20.5128 82.8078 36.0833 85.3075C40.5445 86.0246 45.0162 84.9604 48.6765 82.3131C51.7944 80.058 54.0008 76.882 55.0303 73.2342C59.9967 75.1304 62.6742 78.013 62.6742 79.846L62.6462 106.817C62.6443 108.633 64.1145 110.106 65.9295 110.108C65.9308 110.108 65.9318 110.108 65.9331 110.108C67.7467 110.108 69.2179 108.638 69.2199 106.824L69.2479 79.85C69.2479 75.8555 74.3234 70.8424 83.8608 67.9085C85.051 73.8909 88.3993 79.1249 93.3684 82.7191C98.5859 86.4927 104.961 88.0106 111.32 86.9877C135.408 83.1201 160.689 89.1011 160.94 89.161C161.196 89.2227 161.455 89.253 161.712 89.253C162.702 89.253 163.657 88.805 164.288 88.0076C165.085 87.0028 165.224 85.6279 164.647 84.4838ZM44.824 76.9862C42.5859 78.6049 39.8529 79.2534 37.1255 78.8169C26.8314 77.1633 16.4736 78.0261 9.80328 78.9878C15.0004 71.079 25.3589 58.1795 37.6383 58.1795C38.5494 58.1795 39.4733 58.2508 40.4041 58.4C44.1972 59.0094 47.1773 61.6228 48.4428 64.9842C44.7941 64.5293 41.1443 64.4225 37.5666 64.6759C35.7559 64.8041 34.3918 66.3759 34.52 68.1866C34.6482 69.9977 36.2187 71.3696 38.0307 71.2332C41.5151 70.987 45.083 71.129 48.6479 71.6454C47.9941 73.7877 46.6702 75.6507 44.824 76.9862ZM110.278 80.4968C105.656 81.2393 101.017 80.1366 97.2212 77.3918C93.5459 74.7337 91.0909 70.8414 90.2646 66.3979C90.4838 66.3601 90.6998 66.3203 90.9223 66.2848C98.9573 64.9944 106.976 64.9438 114.753 66.1336C116.544 66.4084 118.224 65.1765 118.499 63.3819C118.773 61.5873 117.541 59.91 115.747 59.6359C107.429 58.3626 98.8702 58.3967 90.3001 59.7312C90.7872 57.2986 91.7917 54.9771 93.2892 52.9067C96.034 49.1111 100.093 46.6121 104.718 45.8693C128.129 42.1127 147.602 68.9114 155.273 81.3478C145.68 79.7294 127.913 77.6646 110.278 80.4968Z" fill="black"/>
<path d="M136.262 65.5956C132.831 64.0988 129.288 62.8265 125.73 61.8131C123.986 61.3171 122.166 62.3282 121.669 64.0745C121.172 65.8204 122.184 67.6387 123.93 68.1357C127.206 69.0685 130.471 70.2409 133.633 71.6211C134.061 71.8074 134.507 71.8962 134.946 71.8962C136.213 71.8962 137.421 71.1586 137.96 69.9228C138.686 68.2593 137.926 66.3217 136.262 65.5956Z" fill="black"/>
<path d="M65.9269 114.053C65.9256 114.053 65.9242 114.053 65.9229 114.053C64.1093 114.053 62.6384 115.522 62.6361 117.336L62.6295 122.774C62.6272 124.589 64.0974 126.062 65.9124 126.065C65.9137 126.065 65.915 126.065 65.9164 126.065C67.73 126.065 69.2009 124.595 69.2032 122.782L69.2098 117.344C69.2121 115.529 67.7422 114.056 65.9269 114.053Z" fill="black"/>
</g>
<defs>
<clipPath id="clip0">
<rect width="191" height="191" fill="white" transform="translate(233.309 232.715) rotate(165.261)"/>
</clipPath>
<clipPath id="clip1">
<rect width="165" height="165" fill="white"/>
</clipPath>
</defs>
</svg>
