<?xml version="1.0" encoding="UTF-8" standalone="no"?>
<svg
   width="350"
   height="350"
   viewBox="0 0 350 350"
   fill="none"
   version="1.1"
   id="svg24"
   sodipodi:docname="info-three-image.svg"
   inkscape:version="1.1 (c68e22c387, 2021-05-23)"
   xmlns:inkscape="http://www.inkscape.org/namespaces/inkscape"
   xmlns:sodipodi="http://sodipodi.sourceforge.net/DTD/sodipodi-0.dtd"
   xmlns="http://www.w3.org/2000/svg"
   xmlns:svg="http://www.w3.org/2000/svg">
  <sodipodi:namedview
     id="namedview26"
     pagecolor="#ffffff"
     bordercolor="#666666"
     borderopacity="1.0"
     inkscape:pageshadow="2"
     inkscape:pageopacity="0.0"
     inkscape:pagecheckerboard="0"
     showgrid="false"
     inkscape:zoom="1.6313725"
     inkscape:cx="228.02885"
     inkscape:cy="157.22957"
     inkscape:window-width="1920"
     inkscape:window-height="1017"
     inkscape:window-x="-8"
     inkscape:window-y="-8"
     inkscape:window-maximized="1"
     inkscape:current-layer="svg24" />
  <g
     opacity="0.5"
     clip-path="url(#clip0)"
     id="g10">
    <path
       opacity="0.529052"
       d="m 216.177,107.283 c -42.133,19.139 -60.773,68.81 -41.634,110.943 19.139,42.133 68.81,60.773 110.943,41.634 42.133,-19.14 60.773,-68.81 41.634,-110.943 -19.139,-42.133 -68.81,-60.7733 -110.943,-41.634 z"
       fill="#e7652c"
       stroke="#e7652c"
       stroke-width="10.2763"
       id="path2" />
    <path
       d="m 193.75,161.015 c -42.133,19.139 -60.773,68.81 -41.634,110.943 19.139,42.133 68.81,60.773 110.943,41.634 42.133,-19.139 60.773,-68.81 41.634,-110.943 -19.14,-42.133 -68.81,-60.773 -110.943,-41.634 z"
       fill="#e7652c"
       stroke="#e7652c"
       stroke-width="10.2763"
       id="path4" />
    <path
       d="m 68.5079,178.631 c -31.5997,14.354 -45.5798,51.607 -31.2254,83.207 14.3544,31.6 51.6076,45.58 83.2075,31.225 31.599,-14.354 45.58,-51.607 31.225,-83.207 -14.354,-31.599 -51.607,-45.58 -83.2071,-31.225 z"
       fill="#f9c9b4"
       id="path6" />
    <path
       opacity="0.623853"
       d="m 118.829,169.14 c -37.8381,17.189 -54.5783,61.797 -37.3899,99.635 17.1883,37.838 61.7959,54.579 99.6349,37.39 37.838,-17.188 54.578,-61.796 37.39,-99.635 -17.188,-37.838 -61.796,-54.578 -99.635,-37.39 z"
       fill="#f9c9b4"
       id="path8" />
  </g>
  <g
     clip-path="url(#clip1)"
     id="g14">
    <path
       d="M 283.11,67.5324 228.037,12.3712 c -2.632,-2.63873 -6.14,-4.09386 -9.873,-4.09386 -2.945,0 -5.807,0.9342 -8.178,2.64976 l -1.527,0.8709 -70.863,9.7465 c -1.623,0.0602 -3.195,0.3175 -4.698,0.7434 l -2.486,-2.3378 c -0.103,-0.0958 -0.207,-0.19 -0.313,-0.2811 -2.529,-2.1756 -5.758,-3.3734 -9.094,-3.3734 -3.732,0 -7.24,1.4551 -9.876,4.0978 L 56.0629,75.5475 c -4.9235,4.9346 -5.4342,12.8215 -1.1915,18.3475 0.1465,0.1892 0.2993,0.3744 0.4584,0.5526 l 23.6289,26.3784 c 0.7656,3.191 1.8153,6.478 3.1272,9.848 -5.7311,6.903 -5.3701,17.191 1.0965,23.66 0.0111,0.011 0.0221,0.022 0.0332,0.033 l 0.0768,0.076 c 3.2452,3.233 7.5314,5.033 12.0987,5.114 -0.0847,0.707 -0.1433,1.419 -0.1433,2.142 0,4.689 1.8224,9.097 5.1322,12.418 l 0.071,0.071 c 0.011,0.012 0.021,0.023 0.032,0.034 3.323,3.322 7.741,5.154 12.44,5.154 0.545,0 1.083,-0.03 1.619,-0.08 0.052,0.06 0.109,0.119 0.162,0.179 -0.01,0.239 -0.035,0.475 -0.035,0.714 0,4.69 1.823,9.099 5.134,12.42 l 0.073,0.074 c 0.01,0.01 0.02,0.02 0.03,0.03 3.322,3.322 7.739,5.152 12.439,5.152 0.012,0 0.023,-0.002 0.035,-0.002 l 1.677,1.677 c 0.194,4.401 1.98,8.513 5.115,11.648 0.019,0.019 0.04,0.04 0.06,0.06 l 0.061,0.06 c 3.129,3.111 7.226,4.883 11.608,5.077 l 4.636,4.636 c 3.786,3.787 8.833,5.872 14.208,5.872 6.187,0 11.936,-2.781 15.774,-7.631 2.087,-2.636 3.4,-5.661 3.96,-8.796 l 2.911,2.912 c 3.845,3.845 9.157,6.051 14.572,6.051 4.471,0 8.845,-1.512 12.315,-4.259 3.855,-3.051 6.439,-7.398 7.307,-12.181 3.718,3.18 8.523,4.979 13.413,4.979 4.471,0 8.845,-1.513 12.315,-4.26 4.496,-3.558 7.265,-8.881 7.597,-14.602 0.309,-5.316 -1.5,-10.524 -4.99,-14.477 3.228,-0.569 6.287,-1.925 8.854,-3.956 4.497,-3.558 7.265,-8.881 7.597,-14.602 0.333,-5.731 -1.795,-11.337 -5.839,-15.38 l -7.468,-7.468 c 0.273,-0.271 0.533,-0.554 0.773,-0.86 13.985,-17.819 21.515,-31.076 24.292,-42.8049 0.217,-0.3832 0.41,-0.7822 0.573,-1.1939 l 1.542,-3.8856 c 3.186,-5.3962 2.385,-12.4177 -2.133,-16.9462 z M 95.7069,150.073 c -2.0702,0 -4.1397,-0.79 -5.7207,-2.37 l -0.0855,-0.085 c -3.1581,-3.158 -3.1581,-8.281 0,-11.439 l 6.3288,-6.329 c 1.5794,-1.581 3.6489,-2.371 5.7195,-2.371 2.072,0 4.142,0.79 5.723,2.371 l 0.083,0.084 c 3.16,3.159 3.16,8.282 0,11.441 l -6.327,6.328 c -1.5805,1.579 -3.6508,2.37 -5.7211,2.37 z m 22.9381,17.431 c -1.581,1.58 -3.651,2.371 -5.722,2.371 -2.07,0 -4.14,-0.791 -5.721,-2.371 l -0.084,-0.085 c -3.16,-3.159 -3.16,-8.281 0,-11.44 l 14.972,-14.973 c 1.581,-1.58 3.651,-2.37 5.722,-2.37 2.072,0 4.142,0.79 5.722,2.37 l 0.085,0.084 c 3.159,3.16 3.159,8.283 0,11.441 z m 19.42,18.491 c -1.579,1.579 -3.649,2.369 -5.72,2.369 -2.071,0 -4.141,-0.79 -5.721,-2.369 l -0.085,-0.086 c -3.16,-3.158 -3.16,-8.281 0,-11.441 l 9.689,-9.691 c 1.58,-1.58 3.65,-2.369 5.721,-2.369 2.07,0 4.14,0.789 5.722,2.369 l 0.085,0.085 c 3.158,3.159 3.158,8.283 0,11.442 z m 13.63,20.928 c -2.071,0 -4.14,-0.791 -5.72,-2.37 l -0.086,-0.084 c -3.16,-3.16 -3.16,-8.283 0,-11.442 l 4.408,-4.408 c 1.58,-1.579 3.65,-2.369 5.721,-2.369 2.07,0 4.141,0.79 5.722,2.369 l 0.084,0.086 c 3.158,3.16 3.158,8.282 0,11.441 l -4.408,4.407 c -1.581,1.579 -3.651,2.37 -5.721,2.37 z m 26.376,6.443 c -2.125,2.685 -5.225,4.027 -8.325,4.027 -2.715,0 -5.431,-1.03 -7.491,-3.089 l -0.819,-0.819 c 0.96,-0.641 1.863,-1.38 2.697,-2.214 l 4.407,-4.406 c 3.103,-3.104 4.787,-7.091 5.081,-11.159 l 3.389,3.388 c 3.84,3.838 4.43,10.015 1.061,14.272 z m 80.743,-65.958 c 4.412,4.411 4.1,11.829 -0.937,15.816 -1.886,1.493 -4.148,2.208 -6.418,2.208 -2.853,0 -5.717,-1.131 -7.854,-3.269 l -38.412,-38.412 c -0.997,-0.997 -2.304,-1.496 -3.611,-1.496 -1.306,0 -2.614,0.499 -3.611,1.496 -2.019,2.019 -2.019,5.293 0,7.311 l 49.381,49.381 c 4.411,4.411 4.099,11.829 -0.937,15.815 -1.886,1.493 -4.148,2.209 -6.418,2.209 -2.853,0 -5.717,-1.132 -7.854,-3.269 l -49.15,-49.149 c -1.01,-1.011 -2.334,-1.517 -3.66,-1.517 -1.324,0 -2.649,0.506 -3.66,1.517 -1.991,1.991 -1.991,5.221 0,7.212 l 38.644,38.643 c 4.411,4.411 4.099,11.829 -0.937,15.815 -1.886,1.493 -4.148,2.208 -6.418,2.208 -2.853,0 -5.716,-1.13 -7.854,-3.269 l -39.933,-39.934 c -0.703,-3.146 -2.259,-6.138 -4.701,-8.581 l -0.087,-0.086 c -2.756,-2.755 -6.269,-4.464 -10.065,-4.973 0.755,-1.979 1.166,-4.093 1.166,-6.274 0,-4.698 -1.83,-9.116 -5.152,-12.438 -0.009,-0.01 -0.019,-0.019 -0.028,-0.029 l -0.075,-0.073 c -3.32,-3.313 -7.731,-5.136 -12.421,-5.136 -3.108,0 -6.084,0.815 -8.71,2.319 -0.751,-3.074 -2.306,-5.902 -4.595,-8.202 l -0.057,-0.058 c -0.02,-0.02 -0.041,-0.042 -0.061,-0.062 -3.323,-3.323 -7.741,-5.154 -12.44,-5.154 -4.7006,0 -9.1183,1.832 -12.4402,5.156 l -0.0277,0.028 c -0.6136,-1.91 -1.1345,-3.802 -1.5407,-5.67 -0.1433,-0.653 -0.418,-1.267 -0.8257,-1.798 L 62.4068,88.1085 c -1.3586,-1.7687 -1.1971,-4.2704 0.3776,-5.849 L 117.856,27.1014 c 0.865,-0.8677 2.005,-1.3055 3.149,-1.3055 1.03,0 2.062,0.3555 2.899,1.0751 l 0.436,0.4093 c -3.688,3.6284 -5.981,8.6691 -5.981,14.2379 0,10.9989 8.928,19.9498 19.917,19.9886 l 35.083,0.4449 z m 17.948,-67.3178 -1.893,4.7692 c -0.407,0.5304 -0.682,1.144 -0.825,1.7979 -2.676,12.28 -12.108,26.3677 -22.682,39.8397 -13.45,-13.451 -73.965,-73.9957 -73.965,-73.9957 l -39.049,-0.4956 c -5.769,0 -10.489,-4.7201 -10.489,-10.4883 0,-5.7683 4.72,-10.4876 10.489,-10.4876 l 73.218,-10.0703 c 0.008,-8e-4 0.015,-0.0048 0.02,-0.0095 l 3.678,-2.098 c 0.837,-0.7197 1.869,-1.0751 2.899,-1.0751 1.143,0 2.284,0.4386 3.149,1.3055 l 55.072,55.158 c 1.575,1.5794 1.737,4.0812 0.378,5.8498 z"
       fill="#000000"
       id="path12" />
  </g>
  <defs
     id="defs22">
    <clipPath
       id="clip0">
      <rect
         width="344"
         height="344"
         fill="#ffffff"
         transform="rotate(155.57,187.99074,232.90189)"
         id="rect16"
         x="0"
         y="0" />
    </clipPath>
    <clipPath
       id="clip1">
      <rect
         width="235.17"
         height="235.17"
         fill="#ffffff"
         transform="translate(52)"
         id="rect19"
         x="0"
         y="0" />
    </clipPath>
  </defs>
</svg>
