<svg width="346" height="492" viewBox="0 0 346 492" fill="none" xmlns="http://www.w3.org/2000/svg">
<g opacity="0.4">
<path opacity="0.538226" d="M140.782 97.4809C140.597 113.251 153.232 126.186 169.002 126.37C184.773 126.555 197.707 113.92 197.892 98.1498C198.077 82.3793 185.442 69.445 169.671 69.2602C153.901 69.0755 140.967 81.7103 140.782 97.4809Z" fill="#EB9C78"/>
<path opacity="0.69419" d="M105.654 132.962C105.377 156.618 124.329 176.019 147.985 176.296C171.641 176.573 191.042 157.621 191.32 133.965C191.597 110.31 172.644 90.9082 148.989 90.6311C125.333 90.354 105.931 109.306 105.654 132.962Z" fill="#EB6A2F"/>
<path d="M192.328 188.002C192.152 202.984 204.155 215.271 219.137 215.447C234.12 215.622 246.407 203.619 246.583 188.637C246.758 173.655 234.755 161.367 219.773 161.192C204.791 161.016 192.503 173.02 192.328 188.002Z" fill="#FC8953"/>
<path d="M287.617 271.275L288.338 209.707L171.726 208.341L171.005 269.909L287.617 271.275Z" fill="#EB9C78"/>
<path d="M283.285 258.175L285.181 96.3047L238.291 95.7554L236.395 257.626L283.285 258.175Z" fill="#EB672A"/>
<path opacity="0.504587" d="M227.272 183.505L229.168 21.6343L182.279 21.085L180.383 182.955L227.272 183.505Z" fill="#FACAB4"/>
<path d="M198.562 214.976L199.284 153.408L82.6718 152.042L81.9506 213.61L198.562 214.976Z" fill="#FC8953"/>
<path opacity="0.538226" d="M97.2518 386.442C113.023 386.441 125.808 373.655 125.807 357.883C125.807 342.112 113.021 329.327 97.249 329.328C81.4773 329.328 68.6925 342.115 68.6933 357.886C68.6941 373.658 81.4801 386.443 97.2518 386.442Z" fill="#EB9C78"/>
<path opacity="0.69419" d="M133.144 421.149C156.801 421.148 175.978 401.969 175.977 378.311C175.976 354.654 156.797 335.477 133.139 335.478C109.482 335.479 90.3047 354.658 90.3058 378.316C90.307 401.973 109.486 421.15 133.144 421.149Z" fill="#EB6A2F"/>
<path d="M187.16 333.835C202.143 333.834 214.289 321.687 214.288 306.704C214.287 291.721 202.141 279.576 187.158 279.576C172.174 279.577 160.029 291.724 160.03 306.707C160.03 321.69 172.177 333.835 187.16 333.835Z" fill="#FC8953"/>
<path d="M269.306 237.573L207.734 237.576L207.74 354.196L269.312 354.193L269.306 237.573Z" fill="#EB9C78"/>
<path d="M256.258 242.058L94.3765 242.066L94.3788 288.959L256.26 288.951L256.258 242.058Z" fill="#EB672A"/>
<path opacity="0.504587" d="M182.252 298.945L20.3706 298.953L20.3729 345.846L182.254 345.838L182.252 298.945Z" fill="#FACAB4"/>
<path d="M214.059 327.283L152.487 327.286L152.493 443.906L214.065 443.903L214.059 327.283Z" fill="#FC8953"/>
</g>
<g clip-path="url(#clip0)">
<path d="M68 286.027L111.838 330.872L132.535 308.744L149.132 325.723L185.585 286.753L222.038 325.723L238.635 308.744L259.332 330.872L303.17 286.027L185.585 160.316L68 286.027ZM222.268 304.408L185.585 265.194L148.902 304.408L142.61 297.972L185.585 252.026L228.56 297.972L222.268 304.408ZM259.562 309.557L243.984 292.903L185.585 230.46L127.186 292.903L111.608 309.557L88.3796 285.797L185.585 181.875L282.79 285.797L259.562 309.557Z" fill="black"/>
</g>
<defs>
<clipPath id="clip0">
<rect width="235.17" height="235.17" fill="white" transform="translate(68 128.009)"/>
</clipPath>
</defs>
</svg>
