<svg width="346" height="492" viewBox="0 0 346 492" fill="none" xmlns="http://www.w3.org/2000/svg">
<g opacity="0.4">
<path opacity="0.538226" d="M140.782 97.4809C140.597 113.251 153.232 126.186 169.002 126.37C184.773 126.555 197.707 113.92 197.892 98.1498C198.077 82.3793 185.442 69.445 169.671 69.2602C153.901 69.0755 140.967 81.7103 140.782 97.4809Z" fill="#EB9C78"/>
<path opacity="0.69419" d="M105.654 132.962C105.377 156.618 124.329 176.019 147.985 176.296C171.641 176.573 191.042 157.621 191.32 133.965C191.597 110.31 172.644 90.9082 148.989 90.6311C125.333 90.354 105.931 109.306 105.654 132.962Z" fill="#EB6A2F"/>
<path d="M192.328 188.002C192.152 202.984 204.155 215.271 219.137 215.447C234.12 215.622 246.407 203.619 246.583 188.637C246.758 173.655 234.755 161.368 219.773 161.192C204.791 161.017 192.503 173.02 192.328 188.002Z" fill="#FC8953"/>
<path d="M287.617 271.275L288.338 209.707L171.726 208.341L171.005 269.909L287.617 271.275Z" fill="#EB9C78"/>
<path d="M283.285 258.175L285.181 96.3044L238.291 95.7552L236.395 257.626L283.285 258.175Z" fill="#EB672A"/>
<path opacity="0.504587" d="M227.272 183.505L229.168 21.6343L182.279 21.085L180.383 182.955L227.272 183.505Z" fill="#FACAB4"/>
<path d="M198.562 214.976L199.284 153.408L82.6718 152.042L81.9506 213.61L198.562 214.976Z" fill="#FC8953"/>
<path opacity="0.538226" d="M97.2518 386.442C113.023 386.441 125.808 373.655 125.807 357.883C125.807 342.111 113.021 329.327 97.249 329.327C81.4773 329.328 68.6925 342.114 68.6933 357.886C68.6941 373.658 81.4801 386.442 97.2518 386.442Z" fill="#EB9C78"/>
<path opacity="0.69419" d="M133.144 421.149C156.801 421.148 175.978 401.969 175.977 378.311C175.976 354.654 156.797 335.476 133.139 335.478C109.482 335.479 90.3047 354.658 90.3058 378.315C90.307 401.973 109.486 421.15 133.144 421.149Z" fill="#EB6A2F"/>
<path d="M187.16 333.834C202.143 333.834 214.289 321.687 214.288 306.704C214.287 291.721 202.141 279.575 187.158 279.576C172.174 279.577 160.029 291.723 160.03 306.706C160.03 321.689 172.177 333.835 187.16 333.834Z" fill="#FC8953"/>
<path d="M269.306 237.572L207.734 237.575L207.74 354.195L269.312 354.192L269.306 237.572Z" fill="#EB9C78"/>
<path d="M256.258 242.058L94.3765 242.066L94.3788 288.959L256.26 288.951L256.258 242.058Z" fill="#EB672A"/>
<path opacity="0.504587" d="M182.252 298.945L20.3706 298.953L20.3729 345.846L182.254 345.838L182.252 298.945Z" fill="#FACAB4"/>
<path d="M214.059 327.283L152.487 327.286L152.493 443.906L214.065 443.903L214.059 327.283Z" fill="#FC8953"/>
</g>
<g clip-path="url(#clip0)">
<path d="M258.894 210.309C258.894 164.843 222.051 128 176.585 128C131.119 128 94.2754 164.843 94.2754 210.309C94.2754 243.625 114.657 273.805 145.229 286.348V308.297V335.733C145.229 338.085 146.797 339.653 149.148 339.653H156.987V363.17H164.826V339.653H180.504V331.814H160.907H153.068V312.216H200.102V331.814H192.263C189.911 331.814 188.343 333.382 188.343 335.733V363.17H196.182V339.653H204.021C206.373 339.653 207.941 338.085 207.941 335.733V308.297V286.348C238.513 273.805 258.894 243.625 258.894 210.309ZM202.846 280.077C201.278 280.469 200.102 282.036 200.102 283.604V304.377H180.504V190.712H192.263V182.873H160.907V190.712H172.665V304.377H153.068V283.604C153.068 282.036 151.892 280.469 150.324 280.077C121.712 269.102 102.114 241.274 102.114 210.309C102.114 169.155 135.43 135.839 176.585 135.839C217.74 135.839 251.055 169.155 251.055 210.309C251.055 241.274 231.458 269.102 202.846 280.077Z" fill="black"/>
<path d="M287.507 238.922L220.876 305.554C220.092 306.338 219.7 307.121 219.7 308.297V363.17H227.539V309.865L292.994 244.409L287.507 238.922Z" fill="black"/>
<path d="M65.6626 238.922L60.1753 244.409L125.631 309.865V363.17H133.47V308.297C133.47 307.121 133.078 306.338 132.294 305.554L65.6626 238.922Z" fill="black"/>
<path d="M248.312 317.312C247.528 318.096 247.136 318.88 247.136 320.056V363.17H254.975V321.624L285.155 291.443L279.668 285.956L248.312 317.312Z" fill="black"/>
<path d="M73.5015 285.956L68.0142 291.443L98.1943 321.624V363.17H106.033V320.056C106.033 318.88 105.641 318.096 104.857 317.312L73.5015 285.956Z" fill="black"/>
</g>
<defs>
<clipPath id="clip0">
<rect width="235.17" height="235.17" fill="white" transform="translate(59 128)"/>
</clipPath>
</defs>
</svg>
