<?xml version="1.0" encoding="UTF-8" standalone="no"?>
<svg
   width="350"
   height="350"
   viewBox="0 0 350 350"
   fill="none"
   version="1.1"
   id="svg42"
   sodipodi:docname="info-one-image.svg"
   inkscape:version="1.1 (c68e22c387, 2021-05-23)"
   xmlns:inkscape="http://www.inkscape.org/namespaces/inkscape"
   xmlns:sodipodi="http://sodipodi.sourceforge.net/DTD/sodipodi-0.dtd"
   xmlns="http://www.w3.org/2000/svg"
   xmlns:svg="http://www.w3.org/2000/svg">
  <sodipodi:namedview
     id="namedview44"
     pagecolor="#ffffff"
     bordercolor="#666666"
     borderopacity="1.0"
     inkscape:pageshadow="2"
     inkscape:pageopacity="0.0"
     inkscape:pagecheckerboard="0"
     showgrid="false"
     inkscape:zoom="1.6313725"
     inkscape:cx="228.02885"
     inkscape:cy="206.26803"
     inkscape:window-width="1920"
     inkscape:window-height="1017"
     inkscape:window-x="-8"
     inkscape:window-y="-8"
     inkscape:window-maximized="1"
     inkscape:current-layer="svg42" />
  <g
     opacity="0.5"
     clip-path="url(#clip0)"
     id="g10">
    <path
       opacity="0.529052"
       d="m 216.177,107.283 c -42.133,19.139 -60.773,68.81 -41.634,110.943 19.139,42.133 68.81,60.773 110.943,41.634 42.133,-19.14 60.773,-68.81 41.634,-110.943 -19.139,-42.133 -68.81,-60.7733 -110.943,-41.634 z"
       fill="#e7652c"
       stroke="#e7652c"
       stroke-width="10.2763"
       id="path2" />
    <path
       d="m 193.75,161.015 c -42.133,19.139 -60.773,68.81 -41.634,110.943 19.139,42.133 68.81,60.773 110.943,41.634 42.133,-19.139 60.773,-68.81 41.634,-110.943 -19.14,-42.133 -68.81,-60.773 -110.943,-41.634 z"
       fill="#e7652c"
       stroke="#e7652c"
       stroke-width="10.2763"
       id="path4" />
    <path
       d="m 68.5079,178.631 c -31.5997,14.354 -45.5798,51.607 -31.2254,83.207 14.3544,31.599 51.6076,45.58 83.2075,31.225 31.599,-14.354 45.58,-51.607 31.225,-83.207 -14.354,-31.6 -51.607,-45.58 -83.2071,-31.225 z"
       fill="#f9c9b4"
       id="path6" />
    <path
       opacity="0.623853"
       d="m 118.829,169.14 c -37.8381,17.189 -54.5783,61.797 -37.3899,99.635 17.1883,37.838 61.7959,54.579 99.6349,37.39 37.838,-17.188 54.578,-61.796 37.39,-99.635 -17.188,-37.838 -61.796,-54.578 -99.635,-37.39 z"
       fill="#f9c9b4"
       id="path8" />
  </g>
  <g
     clip-path="url(#clip1)"
     id="g32">
    <path
       d="m 290.733,47.0359 c 0,-0.3919 0,-0.7838 -0.392,-1.1758 v -0.3919 c -0.392,-0.392 -0.392,-0.7839 -0.784,-1.1759 L 246.443,1.1778 c -0.392,-0.391947 -0.784,-0.391947 -1.176,-0.783897 h -0.392 c -0.392,0 -0.784,-0.39194988 -1.176,-0.39194988 H 114.356 c -2.352,0 -3.92,1.56779688 -3.92,3.91949688 V 231.252 c 0,2.352 1.568,3.92 3.92,3.92 h 19.597 23.517 19.598 35.275 74.47 c 2.352,0 3.92,-1.568 3.92,-3.92 z M 277.407,43.1165 H 247.618 V 13.3283 Z m -139.534,47.034 h 15.678 V 203.816 h -15.678 z m 1.959,-7.8391 5.88,-13.7182 5.879,13.7182 z m -1.959,145.0216 v -15.678 h 15.678 v 15.678 z m 43.114,0 v -23.517 h 15.678 v -7.839 H 180.987 V 172.46 h 15.678 v -7.839 h -15.678 v -27.437 h 15.678 v -7.839 h -15.678 v -23.517 h 15.678 V 97.9894 H 180.987 V 78.392 h 27.437 v 148.941 z m 35.276,0 V 74.4725 c 0,-2.3517 -1.568,-3.9196 -3.92,-3.9196 h -35.275 c -2.352,0 -3.92,1.5679 -3.92,3.9196 V 227.333 H 161.39 V 207.735 86.2309 c 0,-1.1758 -0.392,-2.3517 -1.176,-2.7436 L 149.239,57.6186 c -0.392,-1.5678 -1.96,-2.3517 -3.527,-2.3517 -1.568,0 -2.744,0.7839 -3.528,2.3517 L 131.21,83.4873 c -0.784,0.7839 -1.176,1.5678 -1.176,2.7436 V 207.735 227.333 H 118.275 V 7.84095 H 239.779 V 47.0359 c 0,2.3518 1.568,3.9196 3.92,3.9196 h 39.195 V 227.333 Z"
       fill="#000000"
       id="path12" />
    <path
       d="m 161.39,19.5996 h -31.356 v 7.839 h 31.356 z"
       fill="#000000"
       id="path14" />
    <path
       d="M 267.216,86.231 H 231.94 v 7.839 h 35.276 z"
       fill="#000000"
       id="path16" />
    <path
       d="M 267.216,105.829 H 231.94 v 7.839 h 35.276 z"
       fill="#000000"
       id="path18" />
    <path
       d="M 267.216,125.426 H 231.94 v 7.839 h 35.276 z"
       fill="#000000"
       id="path20" />
    <path
       d="M 267.216,145.023 H 231.94 v 7.839 h 35.276 z"
       fill="#000000"
       id="path22" />
    <path
       d="M 267.216,164.621 H 231.94 v 7.839 h 35.276 z"
       fill="#000000"
       id="path24" />
    <path
       d="M 267.216,184.218 H 231.94 v 7.839 h 35.276 z"
       fill="#000000"
       id="path26" />
    <path
       d="M 267.216,203.816 H 231.94 v 7.839 h 35.276 z"
       fill="#000000"
       id="path28" />
    <path
       d="m 192.746,35.2773 h -62.712 v 7.839 h 62.712 z"
       fill="#000000"
       id="path30" />
  </g>
  <defs
     id="defs40">
    <clipPath
       id="clip0">
      <rect
         width="344"
         height="344"
         fill="#ffffff"
         transform="rotate(155.57,187.99074,232.90189)"
         id="rect34"
         x="0"
         y="0" />
    </clipPath>
    <clipPath
       id="clip1">
      <rect
         width="235.16901"
         height="235.17"
         fill="#ffffff"
         transform="translate(82.9998,0.00195312)"
         id="rect37"
         x="0"
         y="0" />
    </clipPath>
  </defs>
</svg>
