<svg width="463" height="860" viewBox="0 0 463 860" fill="none" xmlns="http://www.w3.org/2000/svg">
<path opacity="0.538226" d="M244.754 170.66C244.429 198.272 266.55 220.92 294.162 221.245C321.775 221.57 344.422 199.449 344.747 171.836C345.072 144.224 322.951 121.577 295.338 121.252C267.726 120.927 245.079 143.048 244.754 170.66Z" fill="#EB9C78"/>
<path opacity="0.69419" d="M183.247 232.78C182.76 274.198 215.941 308.17 257.36 308.657C298.778 309.144 332.75 275.963 333.237 234.544C333.724 193.126 300.543 159.154 259.124 158.667C217.706 158.18 183.735 191.361 183.247 232.78Z" fill="#EB6A2F"/>
<path d="M334.997 329.156C334.688 355.387 355.703 376.903 381.935 377.211C408.166 377.52 429.682 356.505 429.99 330.273C430.299 304.041 409.284 282.526 383.052 282.218C356.82 281.909 335.305 302.924 334.997 329.156Z" fill="#FC8953"/>
<path d="M501.829 474.964L503.097 367.167L298.924 364.765L297.656 472.563L501.829 474.964Z" fill="#EB9C78"/>
<path d="M494.245 452.027L497.579 168.612L415.481 167.646L412.148 451.062L494.245 452.027Z" fill="#EB672A"/>
<path opacity="0.504587" d="M396.181 321.285L399.515 37.8691L317.417 36.9034L314.084 320.319L396.181 321.285Z" fill="#FACAB4"/>
<path d="M345.911 376.384L347.179 268.586L143.005 266.185L141.737 373.982L345.911 376.384Z" fill="#FC8953"/>
<path opacity="0.538226" d="M168.514 676.591C196.128 676.591 218.514 654.206 218.514 626.591C218.514 598.977 196.128 576.591 168.514 576.591C140.9 576.591 118.514 598.977 118.514 626.591C118.514 654.206 140.9 676.591 168.514 676.591Z" fill="#EB9C78"/>
<path opacity="0.69419" d="M231.353 737.363C272.774 737.363 306.353 703.784 306.353 662.363C306.353 620.942 272.774 587.363 231.353 587.363C189.932 587.363 156.353 620.942 156.353 662.363C156.353 703.784 189.932 737.363 231.353 737.363Z" fill="#EB6A2F"/>
<path d="M325.938 584.49C352.171 584.49 373.438 563.224 373.438 536.99C373.438 510.757 352.171 489.49 325.938 489.49C299.704 489.49 278.438 510.757 278.438 536.99C278.438 563.224 299.704 584.49 325.938 584.49Z" fill="#FC8953"/>
<path d="M469.774 415.954H361.969V620.142H469.774V415.954Z" fill="#EB9C78"/>
<path d="M446.928 423.808H163.493V505.911H446.928V423.808Z" fill="#EB672A"/>
<path opacity="0.504587" d="M317.347 523.403H33.9121V605.506H317.347V523.403Z" fill="#FACAB4"/>
<path d="M373.034 573.022H265.229V777.209H373.034V573.022Z" fill="#FC8953"/>
</svg>
